<svg width="28" height="29" viewBox="0 0 28 29" fill="none" xmlns="http://www.w3.org/2000/svg">
<path d="M14.0027 8.34671C10.5974 8.34671 7.85076 11.094 7.85076 14.5C7.85076 17.906 10.5974 20.6533 14.0027 20.6533C17.4079 20.6533 20.1546 17.906 20.1546 14.5C20.1546 11.094 17.4079 8.34671 14.0027 8.34671ZM14.0027 18.5005C11.8021 18.5005 10.0031 16.7065 10.0031 14.5C10.0031 12.2936 11.7968 10.4996 14.0027 10.4996C16.2086 10.4996 18.0023 12.2936 18.0023 14.5C18.0023 16.7065 16.2032 18.5005 14.0027 18.5005ZM21.8412 8.09501C21.8412 8.89296 21.1987 9.53024 20.4062 9.53024C19.6085 9.53024 18.9714 8.8876 18.9714 8.09501C18.9714 7.30242 19.6139 6.65977 20.4062 6.65977C21.1987 6.65977 21.8412 7.30242 21.8412 8.09501ZM25.9157 9.55166C25.8247 7.62909 25.3856 5.92609 23.9775 4.52299C22.5747 3.11988 20.8721 2.68074 18.9499 2.58435C16.9689 2.47188 11.0311 2.47188 9.05009 2.58435C7.13331 2.67539 5.43068 3.11453 4.02253 4.51763C2.61439 5.92074 2.1807 7.62374 2.08433 9.54631C1.97189 11.5278 1.97189 17.4669 2.08433 19.4483C2.17535 21.371 2.61439 23.0739 4.02253 24.4771C5.43068 25.8801 7.12794 26.3193 9.05009 26.4157C11.0311 26.5281 16.9689 26.5281 18.9499 26.4157C20.8721 26.3246 22.5747 25.8855 23.9775 24.4771C25.3802 23.0739 25.8193 21.371 25.9157 19.4483C26.0281 17.4669 26.0281 11.5331 25.9157 9.55166ZM23.3564 21.5744C22.9388 22.6241 22.1303 23.4327 21.0756 23.8558C19.496 24.4823 15.7482 24.3377 14.0027 24.3377C12.2572 24.3377 8.50397 24.4771 6.92985 23.8558C5.88043 23.4381 5.07196 22.6294 4.64897 21.5744C4.02253 19.9946 4.16709 16.2459 4.16709 14.5C4.16709 12.7542 4.02789 9.00006 4.64897 7.42559C5.06659 6.37595 5.87507 5.56728 6.92985 5.1442C8.50932 4.51763 12.2572 4.66222 14.0027 4.66222C15.7482 4.66222 19.5014 4.52299 21.0756 5.1442C22.125 5.56192 22.9334 6.37058 23.3564 7.42559C23.9828 9.00542 23.8382 12.7542 23.8382 14.5C23.8382 16.2459 23.9828 20 23.3564 21.5744Z" fill="#F3F2F2"/>
</svg>
