<svg width="127" height="43" viewBox="0 0 127 43" fill="none" xmlns="http://www.w3.org/2000/svg">
<path d="M98.3433 41.8713C97.6534 41.8713 97.021 41.7064 96.4461 41.3768C95.8711 41.0328 95.4112 40.5813 95.0662 40.0223C94.7357 39.4489 94.5704 38.8111 94.5704 38.1088V36.7973H97.8043V38.3668C97.8043 38.5101 97.8546 38.6319 97.9552 38.7323C98.0702 38.8326 98.1996 38.8828 98.3433 38.8828C98.487 38.8828 98.6092 38.8326 98.7098 38.7323C98.8104 38.6319 98.8608 38.5101 98.8608 38.3668V34.6688C98.8608 34.5254 98.8104 34.4036 98.7098 34.3033C98.6236 34.2029 98.5014 34.1528 98.3433 34.1528C98.1996 34.1528 98.0702 34.2029 97.9552 34.3033C97.8546 34.4036 97.8043 34.5254 97.8043 34.6688V35.5073H94.5704V26.6063H101.901V29.4013H97.8043V31.4868H98.1277C98.2858 31.2431 98.5158 31.0854 98.8176 31.0138C99.1195 30.9421 99.4213 30.9063 99.7231 30.9063C100.384 30.9063 100.88 31.0926 101.211 31.4653C101.556 31.8379 101.793 32.3109 101.922 32.8843C102.052 33.4576 102.116 34.0524 102.116 34.6688V38.1088C102.116 38.8111 101.944 39.4489 101.599 40.0223C101.268 40.5813 100.815 41.0328 100.241 41.3768C99.6656 41.7064 99.0332 41.8713 98.3433 41.8713Z" fill="#2C2A4A"/>
<path d="M86.1486 41.6563V40.3233C86.1486 39.4059 86.2133 38.5674 86.3427 37.8078C86.4864 37.0338 86.7451 36.3171 87.1188 35.6578C87.4925 34.9984 88.0315 34.3821 88.7358 33.8088C89.3969 33.2211 89.8425 32.6979 90.0725 32.2393C90.3168 31.7806 90.439 31.3936 90.439 31.0783V29.9173C90.439 29.7739 90.3887 29.6521 90.2881 29.5518C90.1875 29.4514 90.0653 29.4013 89.9216 29.4013C89.7778 29.4013 89.6485 29.4514 89.5335 29.5518C89.4329 29.6521 89.3826 29.7739 89.3826 29.9173V31.7233H86.1486V30.1538C86.1486 29.4514 86.3139 28.8208 86.6445 28.2618C86.9894 27.6884 87.4494 27.2369 88.0243 26.9073C88.5992 26.5633 89.2317 26.3913 89.9216 26.3913C90.6115 26.3913 91.2439 26.5633 91.8188 26.9073C92.3937 27.2369 92.8465 27.6884 93.1771 28.2618C93.522 28.8208 93.6945 29.4514 93.6945 30.1538V30.2398C93.6945 31.0138 93.6011 31.6731 93.4142 32.2178C93.2418 32.7481 92.9687 33.2426 92.595 33.7013C92.2356 34.1599 91.7757 34.6688 91.2151 35.2278C90.6977 35.7438 90.2881 36.3171 89.9862 36.9478C89.6844 37.5641 89.5335 38.2091 89.5335 38.8828H93.6945V41.6563H86.1486Z" fill="#2C2A4A"/>
<path d="M72.9896 41.6563L74.8222 26.6063H78.7029L80.5355 41.6563H77.5172L77.3231 38.8828H76.1805L76.0295 41.6563H72.9896ZM76.3529 35.6578H77.1722L76.9566 30.9063H76.5901L76.3529 35.6578Z" fill="#2C2A4A"/>
<path d="M62.694 41.6563V26.6063H66.3807L67.3509 33.2928H67.4803L68.4074 26.6063H72.1156V41.6563H69.3129V34.9698H69.1835L68.3427 41.6563H66.467L65.6261 34.9698H65.4968V41.6563H62.694Z" fill="#2C2A4A"/>
<path d="M61.3912 29.4013H51.0425V32.5188H59.5155V35.7438H51.0425V38.8828H61.3912V41.6563H47.8086V26.6063H61.3912V29.4013ZM50.6976 24.6068L58.3297 23.2093L58.5022 24.1338L50.8701 25.5313L50.6976 24.6068Z" fill="#2C2A4A"/>
<path d="M38.9658 41.6563V26.6063H41.5529L43.3855 32.5188H43.7089V26.6063H46.5117V41.6563H43.9245L42.0919 35.7438H41.7685V41.6563H38.9658Z" fill="#2C2A4A"/>
<path d="M34.418 41.6563V26.6063H37.6735V41.6563H34.418Z" fill="#2C2A4A"/>
<path d="M29.7928 41.8713C29.1029 41.8713 28.4705 41.7064 27.8955 41.3768C27.3206 41.0328 26.8607 40.5813 26.5157 40.0223C26.1851 39.4489 26.0198 38.8111 26.0198 38.1088V30.1538C26.0198 29.4514 26.1851 28.8208 26.5157 28.2618C26.8607 27.6884 27.3206 27.2369 27.8955 26.9073C28.4705 26.5633 29.1029 26.3913 29.7928 26.3913C30.4971 26.3913 31.1295 26.5633 31.69 26.9073C32.265 27.2369 32.7177 27.6884 33.0483 28.2618C33.3932 28.8208 33.5657 29.4514 33.5657 30.1538V32.5188H30.3749V29.9603C30.3749 29.8026 30.3174 29.6736 30.2024 29.5733C30.0874 29.4586 29.9509 29.4013 29.7928 29.4013C29.6491 29.4013 29.5197 29.4586 29.4047 29.5733C29.2897 29.6736 29.2322 29.8026 29.2322 29.9603V38.3238C29.2322 38.4671 29.2897 38.5961 29.4047 38.7108C29.5197 38.8254 29.6491 38.8828 29.7928 38.8828C29.9509 38.8828 30.0874 38.8254 30.2024 38.7108C30.3174 38.5961 30.3749 38.4671 30.3749 38.3238V35.7438H33.5657V38.1088C33.5657 38.8111 33.3932 39.4489 33.0483 40.0223C32.7177 40.5813 32.265 41.0328 31.69 41.3768C31.1295 41.7064 30.4971 41.8713 29.7928 41.8713Z" fill="#2C2A4A"/>
<path d="M118.699 20.1563V5.10627H121.911V11.0188H123.054V5.10627H126.245V20.1563H123.054V14.2438H121.911V20.1563H118.699Z" fill="#2C2A4A"/>
<path d="M113.839 20.3713C113.149 20.3713 112.517 20.2064 111.942 19.8768C111.367 19.5328 110.907 19.0813 110.562 18.5223C110.232 17.9489 110.066 17.3111 110.066 16.6088V14.8888H113.279V16.7163C113.279 16.8596 113.329 16.9958 113.43 17.1248C113.545 17.2394 113.681 17.2968 113.839 17.2968C113.997 17.2968 114.134 17.2394 114.249 17.1248C114.364 16.9958 114.421 16.8596 114.421 16.7163C114.421 16.5873 114.407 16.4798 114.378 16.3938C114.35 16.2934 114.285 16.1644 114.184 16.0068L111.597 11.7928C111.41 11.4774 111.195 11.1478 110.95 10.8038C110.706 10.4454 110.498 10.0943 110.325 9.75027C110.153 9.39194 110.066 9.0551 110.066 8.73977V8.65377C110.066 7.95144 110.232 7.32077 110.562 6.76177C110.907 6.18844 111.367 5.73694 111.942 5.40727C112.517 5.06327 113.149 4.89127 113.839 4.89127C114.544 4.89127 115.176 5.06327 115.737 5.40727C116.312 5.73694 116.764 6.18844 117.095 6.76177C117.44 7.32077 117.612 7.95144 117.612 8.65377V10.1803H114.421V8.52477C114.421 8.3671 114.364 8.23094 114.249 8.11627C114.134 8.0016 113.997 7.94427 113.839 7.94427C113.696 7.94427 113.566 8.0016 113.451 8.11627C113.336 8.23094 113.279 8.3671 113.279 8.52477C113.279 8.6251 113.293 8.7111 113.322 8.78277C113.365 8.8401 113.423 8.93327 113.494 9.06227L116.168 13.2978C116.498 13.8281 116.822 14.3584 117.138 14.8888C117.454 15.4048 117.612 15.9494 117.612 16.5228V16.6088C117.612 17.3111 117.44 17.9489 117.095 18.5223C116.764 19.0813 116.312 19.5328 115.737 19.8768C115.176 20.2064 114.544 20.3713 113.839 20.3713Z" fill="#2C2A4A"/>
<path d="M102.087 20.1563L103.919 5.10627H107.8L109.633 20.1563H106.614L106.42 17.3828H105.278L105.127 20.1563H102.087ZM105.45 14.1578H106.269L106.054 9.40627H105.687L105.45 14.1578Z" fill="#2C2A4A"/>
<path d="M94.7599 20.1563V5.10627H97.9723V17.3828H100.797V20.1563H94.7599Z" fill="#2C2A4A"/>
<path d="M87.854 20.1563V5.10627H93.8907V8.33127H91.0664V11.0188H92.9421V14.2438H91.0664V20.1563H87.854Z" fill="#2C2A4A"/>
<path d="M76.2109 20.1563V5.10627H79.4233V17.3828H82.2477V20.1563H76.2109Z" fill="#2C2A4A"/>
<path d="M67.7892 20.1563L69.6218 5.10627H73.5025L75.3351 20.1563H72.3167L72.1227 17.3828H70.98L70.8291 20.1563H67.7892ZM71.1525 14.1578H71.9718L71.7562 9.40627H71.3897L71.1525 14.1578Z" fill="#2C2A4A"/>
<path d="M62.8027 20.1563L60.8623 5.42877V5.10627H64.0747L64.4843 15.8563H64.7646L65.1742 5.10627H68.4082V5.42877L66.4678 20.1563H62.8027Z" fill="#2C2A4A"/>
<path d="M56.3146 20.1563V5.10627H59.5701V20.1563H56.3146Z" fill="#2C2A4A"/>
<path d="M49.7304 20.1563V7.90127H47.6823V5.10627H55.0125V7.90127H52.9644V20.1563H49.7304Z" fill="#2C2A4A"/>
<path d="M43.2651 20.3713C42.5752 20.3713 41.9427 20.2064 41.3678 19.8768C40.7929 19.5328 40.333 19.0813 39.988 18.5223C39.6574 17.9489 39.4921 17.3111 39.4921 16.6088V14.8888H42.7045V16.7163C42.7045 16.8596 42.7548 16.9958 42.8554 17.1248C42.9704 17.2394 43.107 17.2968 43.2651 17.2968C43.4232 17.2968 43.5597 17.2394 43.6747 17.1248C43.7897 16.9958 43.8472 16.8596 43.8472 16.7163C43.8472 16.5873 43.8328 16.4798 43.8041 16.3938C43.7753 16.2934 43.7106 16.1644 43.61 16.0068L41.0229 11.7928C40.836 11.4774 40.6204 11.1478 40.3761 10.8038C40.1317 10.4454 39.9233 10.0943 39.7508 9.75027C39.5784 9.39194 39.4921 9.0551 39.4921 8.73977V8.65377C39.4921 7.95144 39.6574 7.32077 39.988 6.76177C40.333 6.18844 40.7929 5.73694 41.3678 5.40727C41.9427 5.06327 42.5752 4.89127 43.2651 4.89127C43.9694 4.89127 44.6018 5.06327 45.1623 5.40727C45.7372 5.73694 46.19 6.18844 46.5206 6.76177C46.8655 7.32077 47.038 7.95144 47.038 8.65377V10.1803H43.8472V8.52477C43.8472 8.3671 43.7897 8.23094 43.6747 8.11627C43.5597 8.0016 43.4232 7.94427 43.2651 7.94427C43.1213 7.94427 42.992 8.0016 42.877 8.11627C42.762 8.23094 42.7045 8.3671 42.7045 8.52477C42.7045 8.6251 42.7189 8.7111 42.7476 8.78277C42.7908 8.8401 42.8483 8.93327 42.9201 9.06227L45.5935 13.2978C45.9241 13.8281 46.2475 14.3584 46.5637 14.8888C46.8799 15.4048 47.038 15.9494 47.038 16.5228V16.6088C47.038 17.3111 46.8655 17.9489 46.5206 18.5223C46.19 19.0813 45.7372 19.5328 45.1623 19.8768C44.6018 20.2064 43.9694 20.3713 43.2651 20.3713Z" fill="#2C2A4A"/>
<path d="M32.8179 20.1563V5.10627H38.8546V7.90127H36.0303V11.0188H37.906V14.2438H36.0303V17.3828H38.8546V20.1563H32.8179Z" fill="#2C2A4A"/>
<path d="M25.912 20.1563V5.10627H31.9488V8.33127H29.1244V11.0188H31.0001V14.2438H29.1244V20.1563H25.912Z" fill="#2C2A4A"/>
<mask id="mask0_417_1959" style="mask-type:alpha" maskUnits="userSpaceOnUse" x="2" y="1" width="37" height="42">
<path d="M20.8859 1.34375L24.4366 16.0391L38.9737 11.7578L27.9872 22.1719L38.9737 32.5859L24.4366 28.3047L20.8859 43L17.3353 28.3047L2.79819 32.5859L13.7847 22.1719L2.79819 11.7578L17.3353 16.0391L20.8859 1.34375Z" fill="#F4EBD9"/>
</mask>
<g mask="url(#mask0_417_1959)">
<rect y="1.34375" width="20.8859" height="42.4784" fill="#2C2A4A"/>
</g>
</svg>
