<svg width="147" height="50" viewBox="0 0 147 50" fill="none" xmlns="http://www.w3.org/2000/svg">
<path d="M113.83 48.6875C113.032 48.6875 112.3 48.4959 111.634 48.1125C110.969 47.7125 110.437 47.1875 110.037 46.5375C109.655 45.8709 109.463 45.1292 109.463 44.3125V42.7875H113.207V44.6125C113.207 44.7792 113.265 44.9209 113.381 45.0375C113.514 45.1542 113.664 45.2125 113.83 45.2125C113.997 45.2125 114.138 45.1542 114.255 45.0375C114.371 44.9209 114.429 44.7792 114.429 44.6125V40.3125C114.429 40.1459 114.371 40.0042 114.255 39.8875C114.155 39.7709 114.013 39.7125 113.83 39.7125C113.664 39.7125 113.514 39.7709 113.381 39.8875C113.265 40.0042 113.207 40.1459 113.207 40.3125V41.2875H109.463V30.9375H117.948V34.1875H113.207V36.6125H113.581C113.764 36.3292 114.03 36.1459 114.379 36.0625C114.729 35.9792 115.078 35.9375 115.428 35.9375C116.193 35.9375 116.767 36.1542 117.149 36.5875C117.549 37.0209 117.823 37.5709 117.973 38.2375C118.123 38.9042 118.198 39.5959 118.198 40.3125V44.3125C118.198 45.1292 117.998 45.8709 117.599 46.5375C117.216 47.1875 116.692 47.7125 116.026 48.1125C115.361 48.4959 114.629 48.6875 113.83 48.6875Z" fill="#F3F2F2"/>
<path d="M99.7153 48.4375V46.8875C99.7153 45.8209 99.7902 44.8459 99.9399 43.9625C100.106 43.0625 100.406 42.2292 100.838 41.4625C101.271 40.6959 101.895 39.9792 102.71 39.3125C103.475 38.6292 103.991 38.0209 104.257 37.4875C104.54 36.9542 104.681 36.5042 104.681 36.1375V34.7875C104.681 34.6209 104.623 34.4792 104.507 34.3625C104.39 34.2459 104.249 34.1875 104.082 34.1875C103.916 34.1875 103.766 34.2459 103.633 34.3625C103.517 34.4792 103.459 34.6209 103.459 34.7875V36.8875H99.7153V35.0625C99.7153 34.2459 99.9067 33.5125 100.289 32.8625C100.689 32.1959 101.221 31.6709 101.886 31.2875C102.552 30.8875 103.284 30.6875 104.082 30.6875C104.881 30.6875 105.613 30.8875 106.278 31.2875C106.944 31.6709 107.468 32.1959 107.851 32.8625C108.25 33.5125 108.45 34.2459 108.45 35.0625V35.1625C108.45 36.0625 108.341 36.8292 108.125 37.4625C107.926 38.0792 107.609 38.6542 107.177 39.1875C106.761 39.7209 106.229 40.3125 105.58 40.9625C104.981 41.5625 104.507 42.2292 104.157 42.9625C103.808 43.6792 103.633 44.4292 103.633 45.2125H108.45V48.4375H99.7153Z" fill="#F3F2F2"/>
<path d="M84.4841 48.4375L86.6052 30.9375H91.0971L93.2183 48.4375H89.7246L89.5 45.2125H88.1774L88.0027 48.4375H84.4841ZM88.377 41.4625H89.3253L89.0758 35.9375H88.6515L88.377 41.4625Z" fill="#F3F2F2"/>
<path d="M72.5671 48.4375V30.9375H76.8344L77.9574 38.7125H78.1071L79.1802 30.9375H83.4724V48.4375H80.2283V40.6625H80.0786L79.1053 48.4375H76.9342L75.961 40.6625H75.8113V48.4375H72.5671Z" fill="#F3F2F2"/>
<path d="M71.0591 34.1875H59.0808V37.8125H68.888V41.5625H59.0808V45.2125H71.0591V48.4375H55.3375V30.9375H71.0591V34.1875ZM58.6815 28.6125L67.5155 26.9875L67.7152 28.0625L58.8811 29.6875L58.6815 28.6125Z" fill="#F3F2F2"/>
<path d="M45.1021 48.4375V30.9375H48.0967L50.2179 37.8125H50.5922V30.9375H53.8363V48.4375H50.8417L48.7206 41.5625H48.3463V48.4375H45.1021Z" fill="#F3F2F2"/>
<path d="M39.8382 48.4375V30.9375H43.6064V48.4375H39.8382Z" fill="#F3F2F2"/>
<path d="M34.4846 48.6875C33.686 48.6875 32.954 48.4959 32.2885 48.1125C31.6231 47.7125 31.0907 47.1875 30.6914 46.5375C30.3088 45.8709 30.1175 45.1292 30.1175 44.3125V35.0625C30.1175 34.2459 30.3088 33.5125 30.6914 32.8625C31.0907 32.1959 31.6231 31.6709 32.2885 31.2875C32.954 30.8875 33.686 30.6875 34.4846 30.6875C35.2998 30.6875 36.0318 30.8875 36.6806 31.2875C37.3461 31.6709 37.8701 32.1959 38.2528 32.8625C38.652 33.5125 38.8517 34.2459 38.8517 35.0625V37.8125H35.1584V34.8375C35.1584 34.6542 35.0918 34.5042 34.9587 34.3875C34.8256 34.2542 34.6676 34.1875 34.4846 34.1875C34.3182 34.1875 34.1685 34.2542 34.0354 34.3875C33.9023 34.5042 33.8357 34.6542 33.8357 34.8375V44.5625C33.8357 44.7292 33.9023 44.8792 34.0354 45.0125C34.1685 45.1459 34.3182 45.2125 34.4846 45.2125C34.6676 45.2125 34.8256 45.1459 34.9587 45.0125C35.0918 44.8792 35.1584 44.7292 35.1584 44.5625V41.5625H38.8517V44.3125C38.8517 45.1292 38.652 45.8709 38.2528 46.5375C37.8701 47.1875 37.3461 47.7125 36.6806 48.1125C36.0318 48.4959 35.2998 48.6875 34.4846 48.6875Z" fill="#F3F2F2"/>
<path d="M137.391 23.4375V5.93753H141.11V12.8125H142.432V5.93753H146.126V23.4375H142.432V16.5625H141.11V23.4375H137.391Z" fill="#F3F2F2"/>
<path d="M131.767 23.6875C130.968 23.6875 130.236 23.4959 129.571 23.1125C128.905 22.7125 128.373 22.1875 127.974 21.5375C127.591 20.8709 127.4 20.1292 127.4 19.3125V17.3125H131.118V19.4375C131.118 19.6042 131.176 19.7625 131.293 19.9125C131.426 20.0459 131.584 20.1125 131.767 20.1125C131.95 20.1125 132.108 20.0459 132.241 19.9125C132.374 19.7625 132.441 19.6042 132.441 19.4375C132.441 19.2875 132.424 19.1625 132.391 19.0625C132.357 18.9459 132.283 18.7959 132.166 18.6125L129.171 13.7125C128.955 13.3459 128.706 12.9625 128.423 12.5625C128.14 12.1459 127.899 11.7375 127.699 11.3375C127.5 10.9209 127.4 10.5292 127.4 10.1625V10.0625C127.4 9.24586 127.591 8.51253 127.974 7.86253C128.373 7.19586 128.905 6.67086 129.571 6.28753C130.236 5.88753 130.968 5.68753 131.767 5.68753C132.582 5.68753 133.314 5.88753 133.963 6.28753C134.628 6.67086 135.152 7.19586 135.535 7.86253C135.934 8.51253 136.134 9.24586 136.134 10.0625V11.8375H132.441V9.91253C132.441 9.7292 132.374 9.57086 132.241 9.43753C132.108 9.3042 131.95 9.23753 131.767 9.23753C131.6 9.23753 131.451 9.3042 131.318 9.43753C131.185 9.57086 131.118 9.7292 131.118 9.91253C131.118 10.0292 131.135 10.1292 131.168 10.2125C131.218 10.2792 131.284 10.3875 131.368 10.5375L134.462 15.4625C134.845 16.0792 135.219 16.6959 135.585 17.3125C135.951 17.9125 136.134 18.5459 136.134 19.2125V19.3125C136.134 20.1292 135.934 20.8709 135.535 21.5375C135.152 22.1875 134.628 22.7125 133.963 23.1125C133.314 23.4959 132.582 23.6875 131.767 23.6875Z" fill="#F3F2F2"/>
<path d="M118.163 23.4375L120.285 5.93753H124.777L126.898 23.4375H123.404L123.179 20.2125H121.857L121.682 23.4375H118.163ZM122.056 16.4625H123.005L122.755 10.9375H122.331L122.056 16.4625Z" fill="#F3F2F2"/>
<path d="M109.683 23.4375V5.93753H113.401V20.2125H116.67V23.4375H109.683Z" fill="#F3F2F2"/>
<path d="M101.689 23.4375V5.93753H108.677V9.68753H105.408V12.8125H107.579V16.5625H105.408V23.4375H101.689Z" fill="#F3F2F2"/>
<path d="M88.2127 23.4375V5.93753H91.931V20.2125H95.2001V23.4375H88.2127Z" fill="#F3F2F2"/>
<path d="M78.4647 23.4375L80.5858 5.93753H85.0777L87.1989 23.4375H83.7052L83.4806 20.2125H82.158L81.9833 23.4375H78.4647ZM82.3576 16.4625H83.3059L83.0564 10.9375H82.6321L82.3576 16.4625Z" fill="#F3F2F2"/>
<path d="M72.6929 23.4375L70.4469 6.31253V5.93753H74.1652L74.6394 18.4375H74.9638L75.4379 5.93753H79.1812V6.31253L76.9352 23.4375H72.6929Z" fill="#F3F2F2"/>
<path d="M65.183 23.4375V5.93753H68.9512V23.4375H65.183Z" fill="#F3F2F2"/>
<path d="M57.562 23.4375V9.18753H55.1913V5.93753H63.676V9.18753H61.3053V23.4375H57.562Z" fill="#F3F2F2"/>
<path d="M50.0785 23.6875C49.2799 23.6875 48.5479 23.4959 47.8824 23.1125C47.217 22.7125 46.6846 22.1875 46.2853 21.5375C45.9027 20.8709 45.7114 20.1292 45.7114 19.3125V17.3125H49.4296V19.4375C49.4296 19.6042 49.4879 19.7625 49.6043 19.9125C49.7374 20.0459 49.8955 20.1125 50.0785 20.1125C50.2615 20.1125 50.4195 20.0459 50.5526 19.9125C50.6857 19.7625 50.7523 19.6042 50.7523 19.4375C50.7523 19.2875 50.7356 19.1625 50.7023 19.0625C50.6691 18.9459 50.5942 18.7959 50.4778 18.6125L47.4832 13.7125C47.2669 13.3459 47.0173 12.9625 46.7345 12.5625C46.4517 12.1459 46.2105 11.7375 46.0108 11.3375C45.8112 10.9209 45.7114 10.5292 45.7114 10.1625V10.0625C45.7114 9.24586 45.9027 8.51253 46.2853 7.86253C46.6846 7.19586 47.217 6.67086 47.8824 6.28753C48.5479 5.88753 49.2799 5.68753 50.0785 5.68753C50.8937 5.68753 51.6257 5.88753 52.2745 6.28753C52.94 6.67086 53.464 7.19586 53.8467 7.86253C54.2459 8.51253 54.4456 9.24586 54.4456 10.0625V11.8375H50.7523V9.91253C50.7523 9.7292 50.6857 9.57086 50.5526 9.43753C50.4195 9.3042 50.2615 9.23753 50.0785 9.23753C49.9121 9.23753 49.7624 9.3042 49.6293 9.43753C49.4962 9.57086 49.4296 9.7292 49.4296 9.91253C49.4296 10.0292 49.4463 10.1292 49.4796 10.2125C49.5295 10.2792 49.596 10.3875 49.6792 10.5375L52.7736 15.4625C53.1562 16.0792 53.5306 16.6959 53.8966 17.3125C54.2626 17.9125 54.4456 18.5459 54.4456 19.2125V19.3125C54.4456 20.1292 54.2459 20.8709 53.8467 21.5375C53.464 22.1875 52.94 22.7125 52.2745 23.1125C51.6257 23.4959 50.8937 23.6875 50.0785 23.6875Z" fill="#F3F2F2"/>
<path d="M37.9861 23.4375V5.93753H44.9734V9.18753H41.7043V12.8125H43.8754V16.5625H41.7043V20.2125H44.9734V23.4375H37.9861Z" fill="#F3F2F2"/>
<path d="M29.9927 23.4375V5.93753H36.9801V9.68753H33.711V12.8125H35.8821V16.5625H33.711V23.4375H29.9927Z" fill="#F3F2F2"/>
<mask id="mask0_38_881" style="mask-type:alpha" maskUnits="userSpaceOnUse" x="3" y="1" width="43" height="49">
<path d="M24.1751 1.5625L28.2848 18.6501L45.1113 13.6719L32.3946 25.7812L45.1113 37.8906L28.2848 32.9124L24.1751 50L20.0653 32.9124L3.23884 37.8906L15.9555 25.7812L3.23884 13.6719L20.0653 18.6501L24.1751 1.5625Z" fill="#F4EBD9"/>
</mask>
<g mask="url(#mask0_38_881)">
<rect y="1.5625" width="24.1751" height="49.3935" fill="#F4EBD9"/>
</g>
</svg>
