<svg width="29" height="29" viewBox="0 0 29 29" fill="none" xmlns="http://www.w3.org/2000/svg">
<path d="M25.9985 8.50375C25.7225 7.42875 24.9092 6.58211 23.8767 6.2948C22.005 5.77271 14.5 5.77271 14.5 5.77271C14.5 5.77271 6.99503 5.77271 5.12335 6.2948C4.09077 6.58216 3.27752 7.42875 3.0015 8.50375C2.5 10.4522 2.5 14.5176 2.5 14.5176C2.5 14.5176 2.5 18.583 3.0015 20.5315C3.27752 21.6065 4.09077 22.4178 5.12335 22.7051C6.99503 23.2273 14.5 23.2273 14.5 23.2273C14.5 23.2273 22.005 23.2273 23.8767 22.7051C24.9092 22.4178 25.7225 21.6065 25.9985 20.5315C26.5 18.583 26.5 14.5176 26.5 14.5176C26.5 14.5176 26.5 10.4522 25.9985 8.50375ZM12.0454 18.2086V10.8266L18.3182 14.5177L12.0454 18.2086Z" fill="#F3F2F2"/>
</svg>
